# xmcd
#
# Track frame offsets:
#	150
#	24839
#	54522
#	78452
#	107180
#	136899
#	153629
#	195370
#	219079
#	254476
#	278812
#	326570
#
# Disc length: 4532 seconds
#
# Revision: 4
# Processed by: cddbd v1.4PL0 Copyright (c) Steve Scherf et al.
# Submitted via: MusicWizard 6.0.2
#
DISCID=9f11b20c
DTITLE=Barbara Dennerlein - Outhipped
DYEAR=1999
DGENRE=Hammond
TTITLE0=Outhipped
TTITLE1=Frog Dance
TTITLE2=Odd Blues
TTITLE3=Bloody Mary
TTITLE4=Sweet Poison
TTITLE5=Black And White
TTITLE6=Mabuse
TTITLE7=Strange Passion
TTITLE8=Farewell To Old Friends
TTITLE9=Satisfaction
TTITLE10=In The Mud
TTITLE11=Jammin'
EXTD=
EXTT0=
EXTT1=
EXTT2=
EXTT3=
EXTT4=
EXTT5=
EXTT6=
EXTT7=
EXTT8=
EXTT9=
EXTT10=
EXTT11=
PLAYORDER=
